<svg version="1.1" id="Capa_1" xmlns="http://www.w3.org/2000/svg" xmlns:xlink="http://www.w3.org/1999/xlink" x="0px" y="0px"
	 width="54px" height="54px" viewBox="0 0 540.607 540.606" style="enable-background:new 0 0 540.607 540.606;"
	 xml:space="preserve">
<g>
	<g>
		<path d="M156.691,540.606h227.225c20.225,0,36.682-16.476,36.682-36.701V36.682C420.597,16.457,404.14,0,383.916,0H156.691
			c-20.225,0-36.682,16.457-36.682,36.682v467.215C120.009,524.131,136.466,540.606,156.691,540.606z M134.353,36.682
			c0-12.307,10.031-22.338,22.338-22.338h227.225c12.326,0,22.338,10.031,22.338,22.338v467.215
			c0,12.326-10.012,22.356-22.338,22.356H156.691c-12.307,0-22.338-10.03-22.338-22.356V36.682z"/>
		<path d="M152.13,477.006h236.336c1.98,0,3.586-1.606,3.586-3.586V63.247c0-1.979-1.605-3.586-3.586-3.586H152.13
			c-1.979,0-3.586,1.606-3.586,3.586V473.43C148.544,475.399,150.15,477.006,152.13,477.006z M165.278,66.833h210.04
			c5.279,0,9.562,4.284,9.562,9.562v383.886c0,5.278-4.283,9.562-9.562,9.562h-210.04c-5.278,0-9.562-4.284-9.562-9.562V76.395
			C155.716,71.116,160,66.833,165.278,66.833z"/>
		<path d="M250.136,37.83h40.344c1.98,0,3.586-1.607,3.586-3.586c0-1.979-1.605-3.586-3.586-3.586h-40.344
			c-1.979,0-3.586,1.606-3.586,3.586C246.55,36.223,248.147,37.83,250.136,37.83z"/>
		<path d="M290.958,485.211h-41.31c-8.482,0-15.386,6.895-15.386,15.367v2.467c0,8.482,6.914,15.386,15.386,15.386h41.31
			c8.482,0,15.387-6.913,15.387-15.386v-2.467C306.345,492.096,299.441,485.211,290.958,485.211z M299.173,503.045
			c0,4.542-3.682,8.214-8.215,8.214h-41.31c-4.523,0-8.214-3.681-8.214-8.214v-2.467c0-4.523,3.701-8.195,8.214-8.195h41.31
			c4.541,0,8.215,3.682,8.215,8.195V503.045z"/>
		<path d="M320.994,197.217c-5.277,0-9.562-2.735-9.562-6.11v-6.111c0-7.917-9.715-14.124-22.107-14.124h-38.041
			c-12.393,0-22.108,6.196-22.108,14.124c0,0,0,2.735,0,6.111c0,3.375-4.284,6.11-9.562,6.11h-17.136
			c-1.597,0-2.878,1.291-2.878,2.878v14.716c0,1.587,1.291,2.897,2.878,2.897c0,0,2.056,0,4.59,0s4.59,4.284,4.59,9.562v101.209
			c0,22.749,18.522,41.253,41.272,41.253h34.722c22.758,0,41.271-18.513,41.271-41.253V227.263c0-5.279,2.057-9.562,4.59-9.562h4.59
			c1.598,0,2.879-1.31,2.879-2.897v-14.717c0-1.587-1.291-2.878-2.879-2.878h-17.107V197.217z M251.283,176.648h38.041
			c8.701,0,16.342,3.901,16.342,8.348c0,0,0,2.735,0,6.11c0,3.376-1.674,6.111-3.73,6.111c-2.055,0-3.729-1.875-3.729-4.188v-4.188
			c0-1.587-1.291-2.878-2.879-2.878h-50.069c-1.587,0-2.878,1.291-2.878,2.878c0,0,0,1.875,0,4.188s-1.673,4.188-3.729,4.188
			s-3.729-2.735-3.729-6.111v-6.11C234.932,180.55,242.572,176.648,251.283,176.648z M292.46,194.463
			c0,1.521-4.285,2.745-9.562,2.745h-25.188c-5.279,0-9.562-1.224-9.562-2.745c0-1.52,4.284-2.744,9.562-2.744h25.188
			C288.175,191.719,292.46,192.952,292.46,194.463z M287.66,363.978h-34.722c-19.584,0-35.505-15.931-35.505-35.506V227.263
			c0-5.279,4.284-9.562,9.562-9.562h86.616c5.279,0,9.562,4.284,9.562,9.562v101.209
			C323.173,348.047,307.244,363.978,287.66,363.978z M330.652,211.934h-4.6H214.554c0,0-2.056,0-4.6,0c-2.543,0-4.6-2.008-4.6-4.484
			c0-2.477,4.284-4.485,9.562-4.485h17.136h13.206h50.069h13.207h17.135c5.279,0,9.562,2.008,9.562,4.485
			C335.251,209.926,333.195,211.934,330.652,211.934z"/>
		<path d="M237.667,327.783c0.793,0,1.444-0.631,1.444-1.434v-86.378c0-0.803-0.65-1.435-1.444-1.435
			c-0.794,0-1.435,0.631-1.435,1.435v86.378C236.232,327.143,236.873,327.783,237.667,327.783z"/>
		<path d="M270.303,327.783c0.794,0,1.435-0.631,1.435-1.434v-86.378c0-0.803-0.641-1.435-1.435-1.435
			c-0.793,0-1.434,0.631-1.434,1.435v86.378C268.869,327.143,269.51,327.783,270.303,327.783z"/>
		<path d="M302.931,327.783c0.803,0,1.434-0.631,1.434-1.434v-86.378c0-0.803-0.641-1.435-1.434-1.435
			c-0.795,0-1.445,0.631-1.445,1.435v86.378C301.496,327.143,302.136,327.783,302.931,327.783z"/>
	</g>
</g>
<g>
</g>
<g>
</g>
<g>
</g>
<g>
</g>
<g>
</g>
<g>
</g>
<g>
</g>
<g>
</g>
<g>
</g>
<g>
</g>
<g>
</g>
<g>
</g>
<g>
</g>
<g>
</g>
<g>
</g>
</svg>
